<svg xmlns="http://www.w3.org/2000/svg" version="1.1" xmlns:xlink="http://www.w3.org/1999/xlink" xmlns:svgjs="http://svgjs.com/svgjs" width="2000" height="560" preserveAspectRatio="none" viewBox="0 0 2000 560"><g mask="url(&quot;#SvgjsMask1000&quot;)" fill="none"><rect width="2000" height="560" x="0" y="0" fill="#0e2a47"></rect><path d="M 0,97 C 80,86.8 240,28.2 400,46 C 560,63.8 640,192.2 800,186 C 960,179.8 1040,21.8 1200,15 C 1360,8.2 1440,141 1600,152 C 1760,163 1920,86.4 2000,70L2000 560L0 560z" fill="rgba(255, 255, 255, 1)"></path><path d="M 0,234 C 80,256.2 240,339.4 400,345 C 560,350.6 640,256.8 800,262 C 960,267.2 1040,372 1200,371 C 1360,370 1440,269.4 1600,257 C 1760,244.6 1920,298.6 2000,309L2000 560L0 560z" fill="#184a7e"></path><path d="M 0,524 C 66.8,497.4 200.4,398.4 334,391 C 467.6,383.6 534.4,486.2 668,487 C 801.6,487.8 868.4,386.8 1002,395 C 1135.6,403.2 1202.4,524 1336,528 C 1469.6,532 1537.2,414.2 1670,415 C 1802.8,415.8 1934,508.6 2000,532L2000 560L0 560z" fill="#2264ab"></path></g><defs><mask id="SvgjsMask1000"><rect width="2000" height="560" fill="#ffffff"></rect></mask></defs></svg>