<svg xmlns="http://www.w3.org/2000/svg" viewBox="0 0 2440 840" height="840" width="2440"><g transform="matrix(-1 0 0 -1 2440 840)"><g mask="url(&quot;#SvgjsMask1037&quot;)" fill="none"><rect width="2440" height="840" x="0" y="0" fill="rgba(37, 70, 125, 1)"/><path d="M2521.333333333333 840L0 840 L0 253.34Q76.24 126.25, 203.33333333333331 202.49Q301.13 178.28, 325.3333333333333 276.08Q405.25 152.67, 528.6666666666666 232.59Q603.36 103.95, 732 178.64Q894.29 137.59, 935.3333333333333 299.88Q988.72 149.93, 1138.6666666666665 203.31Q1219.27 161.91, 1260.6666666666665 242.51Q1431.27 209.78, 1463.9999999999998 380.39Q1472.64 267.03, 1585.9999999999998 275.67Q1658.03 144.36, 1789.333333333333 216.39Q1871.72 176.78, 1911.333333333333 259.17Q1961.02 186.86, 2033.333333333333 236.55Q2063.69 144.91, 2155.333333333333 175.26Q2226.99 124.92, 2277.333333333333 196.58Q2436 233.25, 2399.333333333333 391.92Q2388.67 259.25, 2521.333333333333 248.59z" fill="rgba(213, 213, 213, 1)"/><path d="M2480.6666666666665 840L0 840 L0 382.25Q104.38 364.63, 122 469.02Q202.24 427.25, 244 507.49Q253.68 395.17, 366 404.85Q413.03 329.88, 488 376.92Q582.1 349.01, 610 443.11Q686.25 397.37, 732 473.62Q748.13 367.75, 854 383.89Q935.98 262.54, 1057.3333333333333 344.52Q1167.37 251.22, 1260.6666666666665 361.26Q1351.11 329.7, 1382.6666666666665 420.15Q1430.4 345.88, 1504.6666666666665 393.61Q1594.18 279.79, 1707.9999999999998 369.31Q1883.59 341.57, 1911.333333333333 517.16Q1979.51 463.34, 2033.333333333333 531.51Q2049.55 425.73, 2155.333333333333 441.94Q2186.46 351.06, 2277.333333333333 382.19Q2386.37 287.89, 2480.6666666666665 396.93z" fill="rgba(229, 230, 231, 1)"/><path d="M2480.6666666666665 840L0 840 L0 597.08Q113.29 588.38, 122 701.67Q190.65 648.32, 244 716.97Q275.33 544.97, 447.3333333333333 576.3Q514.84 440.47, 650.6666666666666 507.97Q763.43 417.4, 854 530.16Q950.83 504.99, 976 601.82Q1062.46 484.94, 1179.3333333333333 571.4Q1247.68 517.75, 1301.3333333333333 586.09Q1408.6 490.03, 1504.6666666666665 597.3Q1593.4 564.03, 1626.6666666666665 652.76Q1676.43 580.52, 1748.6666666666665 630.29Q1855.94 534.23, 1951.9999999999998 641.5Q1996.24 482.41, 2155.333333333333 526.65Q2292.45 460.44, 2358.6666666666665 597.56Q2478.93 595.82, 2480.6666666666665 716.08z" fill="rgba(237, 237, 237, 1)"/><path d="M2521.3333333333335 840L0 840 L0 823.72Q48.41 668.79, 203.33333333333331 717.2Q286.17 596.71, 406.66666666666663 679.55Q474.07 624.95, 528.6666666666666 692.36Q675.1 716.8, 650.6666666666666 863.23Q617.94 708.5, 772.6666666666666 675.77Q840.09 621.19, 894.6666666666666 688.61Q1037.2 627.81, 1098 770.35Q1226.56 695.57, 1301.3333333333333 824.13Q1381.36 782.16, 1423.3333333333333 862.19Q1429.26 746.12, 1545.3333333333333 752.04Q1612.58 697.28, 1667.3333333333333 764.53Q1789.14 683, 1870.6666666666665 804.81Q1941.09 671.9, 2074 742.33Q2144.19 690.52, 2196 760.71Q2212.94 655.65, 2318 672.6Q2443.77 595.04, 2521.3333333333335 720.81z" fill="white"/></g><defs><mask id="SvgjsMask1037"><rect width="2440" height="840" fill="#ffffff"/></mask></defs></g></svg>