<svg xmlns="http://www.w3.org/2000/svg" version="1.1" xmlns:xlink="http://www.w3.org/1999/xlink" xmlns:svgjs="http://svgjs.com/svgjs" width="1440" height="560" preserveAspectRatio="none" viewBox="0 0 1440 560"><g mask="url(&quot;#SvgjsMask1114&quot;)" fill="none"><rect width="1440" height="560" x="0" y="0" fill="url(#SvgjsLinearGradient1115)"></rect><path d="M1464 560L0 560 L0 304.4Q33.21 265.61, 72 298.81Q123.63 230.44, 192 282.06Q254.94 273, 264 335.94Q290.99 290.93, 336 317.91Q413.36 275.27, 456 352.63Q457.13 281.76, 528 282.9Q579.87 214.77, 648 266.64Q697.18 243.82, 720 293Q768.07 269.07, 792 317.15Q845.32 298.47, 864 351.79Q874.05 289.84, 936 299.88Q962.13 254.01, 1008 280.14Q1066.57 266.7, 1080 325.27Q1148.94 274.21, 1200 343.15Q1267.72 290.87, 1320 358.59Q1339.45 306.04, 1392 325.49Q1411.57 273.06, 1464 292.62z" fill="#182f5d"></path><path d="M1464 560L0 560 L0 363.36Q57.92 349.28, 72 407.2Q99.38 314.58, 192 341.96Q236.75 314.7, 264 359.45Q346.61 322.06, 384 404.67Q404 352.67, 456 372.67Q483.19 327.87, 528 355.06Q580.62 287.68, 648 340.3Q715.8 336.1, 720 403.9Q767.79 379.69, 792 427.47Q793.16 356.63, 864 357.79Q893.5 315.29, 936 344.79Q1021.24 310.03, 1056 395.28Q1107.08 374.36, 1128 425.43Q1129.34 354.76, 1200 356.1Q1247.27 283.37, 1320 330.64Q1362.81 301.44, 1392 344.25Q1457.64 337.89, 1464 403.54z" fill="#25467d"></path><path d="M1464 560L0 560 L0 479.38Q44.31 451.69, 72 495.99Q89.58 441.57, 144 459.15Q194.58 389.73, 264 440.31Q327.91 432.22, 336 496.12Q349.91 438.03, 408 451.95Q449.65 373.6, 528 415.25Q595.12 362.37, 648 429.48Q714.05 375.53, 768 441.59Q834.13 435.72, 840 501.85Q867.31 457.17, 912 484.48Q955.28 407.76, 1032 451.05Q1114.39 413.44, 1152 495.84Q1193.87 465.7, 1224 507.57Q1265.03 428.6, 1344 469.63Q1395.73 401.36, 1464 453.09z" fill="#356cb1"></path><path d="M1536 560L0 560 L0 512.25Q80.1 472.35, 120 552.44Q163.52 523.97, 192 567.49Q221.22 476.71, 312 505.92Q358.34 480.26, 384 526.61Q451.52 522.13, 456 589.66Q475.67 537.33, 528 557Q533.59 490.59, 600 496.18Q669.62 445.79, 720 515.41Q807.46 482.87, 840 570.33Q853.79 512.13, 912 525.92Q988.24 482.16, 1032 558.4Q1078.12 532.51, 1104 578.63Q1134.5 489.13, 1224 519.63Q1274.73 450.36, 1344 501.09Q1398.91 484, 1416 538.91Q1493.43 496.34, 1536 573.76z" fill="white"></path></g><defs><mask id="SvgjsMask1114"><rect width="1440" height="560" fill="#ffffff"></rect></mask><linearGradient x1="50%" y1="0%" x2="50%" y2="100%" gradientUnits="userSpaceOnUse" id="SvgjsLinearGradient1115"><stop stop-color="#0e2a47" offset="0"></stop><stop stop-color="rgba(0, 111, 255, 1)" offset="1"></stop></linearGradient></defs></svg>